<svg xmlns="http://www.w3.org/2000/svg" xmlns:xlink="http://www.w3.org/1999/xlink" viewBox="0 0 353 353"><defs><style>.cls-1,.cls-2,.cls-4,.cls-6,.cls-8{fill:none;}.cls-1{stroke:#fff;stroke-linecap:round;stroke-width:30px;}.cls-1,.cls-8{stroke-linejoin:round;}.cls-2,.cls-4,.cls-6,.cls-8{stroke:#1b1464;}.cls-2,.cls-6{stroke-miterlimit:10;}.cls-2,.cls-4{stroke-width:10px;}.cls-3{fill:#d4e4ff;}.cls-4{stroke-linejoin:bevel;}.cls-5{fill:url(#linear-gradient);}.cls-6,.cls-8{stroke-width:6px;}.cls-7{fill:#d9e021;}.cls-9{fill:url(#linear-gradient-2);}</style><linearGradient id="linear-gradient" x1="960" y1="418.14" x2="960" y2="635.2" gradientUnits="userSpaceOnUse"><stop offset="0" stop-color="#fff"/><stop offset="0.4" stop-color="#f5fcff"/><stop offset="1" stop-color="#e9f9ff"/></linearGradient><linearGradient id="linear-gradient-2" x1="176.5" y1="210" x2="176.5" y2="279.18" gradientUnits="userSpaceOnUse"><stop offset="0" stop-color="#e2b3c7"/><stop offset="0.12" stop-color="#d9adc4"/><stop offset="0.31" stop-color="#c29dbe"/><stop offset="0.54" stop-color="#9c82b2"/><stop offset="0.82" stop-color="#675ea3"/><stop offset="1" stop-color="#404397"/></linearGradient></defs><g id="Layer_3" data-name="Layer 3"><circle class="cls-1" cx="176.5" cy="176.5" r="161.5"/><circle class="cls-1" cx="176.5" cy="176.5" r="161.5"/><circle class="cls-2" cx="176.5" cy="176.5" r="161.5"/><circle class="cls-3" cx="176.5" cy="176.5" r="161.5"/></g><g id="numbody"><path class="cls-4" d="M1037.05,452.07c-.66-.55-1.34-1.09-2.06-1.61l-52.73-38.24a37.91,37.91,0,0,0-44.52,0L885,450.46c-.72.52-1.4,1.06-2.06,1.61-30.65,19-50.45,49.05-50.45,82.89,0,57.46,57.08,104,127.5,104s127.5-46.58,127.5-104C1087.5,501.12,1067.7,471.07,1037.05,452.07Z" transform="translate(-783.5 -352.5)"/><path class="cls-5" d="M1037.05,452.07c-.66-.55-1.34-1.09-2.06-1.61l-52.73-38.24a37.91,37.91,0,0,0-44.52,0L885,450.46c-.72.52-1.4,1.06-2.06,1.61-30.65,19-50.45,49.05-50.45,82.89,0,57.46,57.08,104,127.5,104s127.5-46.58,127.5-104C1087.5,501.12,1067.7,471.07,1037.05,452.07Z" transform="translate(-783.5 -352.5)"/><ellipse class="cls-6" cx="880.02" cy="520.68" rx="18.24" ry="13" transform="translate(-646.97 870.15) rotate(-73.97)"/><ellipse class="cls-7" cx="880.02" cy="520.68" rx="18.24" ry="13" transform="translate(-646.97 870.15) rotate(-73.97)"/><ellipse class="cls-6" cx="1040.02" cy="520.68" rx="13" ry="18.24" transform="translate(-886.86 -44.98) rotate(-16.03)"/><ellipse class="cls-7" cx="1040.02" cy="520.68" rx="13" ry="18.24" transform="translate(-886.86 -44.98) rotate(-16.03)"/><polygon class="cls-8" points="260.41 228.34 247.57 206.33 220.06 226.51 176.96 178.02 176.96 176.99 176.5 177.5 176.04 176.99 176.04 178.02 132.94 226.51 105.43 206.33 92.59 228.34 71.5 205.41 93.51 236.59 111.85 226.51 143.03 243.01 176.5 219.49 209.97 243.01 241.15 226.51 259.49 236.59 281.5 205.41 260.41 228.34"/><polygon class="cls-9" points="260.41 228.34 247.57 206.33 220.06 226.51 176.96 178.02 176.96 176.99 176.5 177.5 176.04 176.99 176.04 178.02 132.94 226.51 105.43 206.33 92.59 228.34 71.5 205.41 93.51 236.59 111.85 226.51 143.03 243.01 176.5 219.49 209.97 243.01 241.15 226.51 259.49 236.59 281.5 205.41 260.41 228.34"/></g></svg>