<svg xmlns="http://www.w3.org/2000/svg" viewBox="0 0 1054 313"><defs><style>.cls-1{fill:#d1d3d4;}.cls-2{fill:#5427b7;}.cls-3,.cls-9{fill:none;}.cls-3{stroke:#5427b7;stroke-width:10px;}.cls-3,.cls-8{stroke-miterlimit:10;}.cls-4{fill:#f2c862;}.cls-5{fill:#d7befc;}.cls-6{fill:#ff90a8;}.cls-7{fill:#bee2da;}.cls-10,.cls-8,.cls-9{font-size:69.28px;font-family:ArialRoundedMTBold, Arial Rounded MT Bold;}.cls-8{fill:#1d1d1b;stroke:#283170;stroke-width:2px;}.cls-9{stroke:#203b7a;stroke-linejoin:round;stroke-width:8px;}.cls-10{fill:#fbe515;}.cls-11{fill:#96a6ff;}</style></defs><g id="head"><path class="cls-1" d="M1651,296v0Z" transform="translate(-597 -285)"/></g><g id="details"><circle class="cls-2" cx="668.5" cy="259.5" r="53.5"/><circle class="cls-2" cx="368.5" cy="259.5" r="53.5"/><circle class="cls-2" cx="68.5" cy="259.5" r="53.5"/><circle class="cls-2" cx="218.5" cy="259.5" r="53.5"/><circle class="cls-2" cx="518.5" cy="259.5" r="53.5"/><circle class="cls-3" cx="658.5" cy="249.5" r="53.5"/><circle class="cls-4" cx="658.5" cy="249.5" r="53.5"/><circle class="cls-3" cx="358.5" cy="249.5" r="53.5"/><circle class="cls-5" cx="358.5" cy="249.5" r="53.5"/><circle class="cls-3" cx="58.5" cy="249.5" r="53.5"/><circle class="cls-6" cx="58.5" cy="249.5" r="53.5"/><circle class="cls-3" cx="208.5" cy="249.5" r="53.5"/><circle class="cls-7" cx="208.5" cy="249.5" r="53.5"/><text class="cls-8" transform="translate(29 274.33)">M</text><text class="cls-8" transform="translate(29 274.33)">M</text><text class="cls-9" transform="translate(29 274.33)">M</text><text class="cls-10" transform="translate(29 274.33)">M</text><text class="cls-8" transform="translate(198 274.33)">I</text><text class="cls-8" transform="translate(198 274.33)">I</text><text class="cls-9" transform="translate(198 274.33)">I</text><text class="cls-10" transform="translate(198 274.33)">I</text><text class="cls-8" transform="translate(334.5 273.9)">N</text><text class="cls-8" transform="translate(334.5 273.9)">N</text><text class="cls-9" transform="translate(334.5 273.9)">N</text><text class="cls-10" transform="translate(334.5 273.9)">N</text><text class="cls-8" transform="translate(632.16 273.9)">O</text><text class="cls-8" transform="translate(632.16 273.9)">O</text><text class="cls-9" transform="translate(632.16 273.9)">O</text><text class="cls-10" transform="translate(632.16 273.9)">O</text><circle class="cls-3" cx="508.5" cy="249.5" r="53.5"/><circle class="cls-11" cx="508.5" cy="249.5" r="53.5"/><text class="cls-8" transform="translate(479 274.33)">M</text><text class="cls-8" transform="translate(479 274.33)">M</text><text class="cls-9" transform="translate(479 274.33)">M</text><text class="cls-10" transform="translate(479 274.33)">M</text></g></svg>