<svg id="Layer_2" data-name="Layer 2" xmlns="http://www.w3.org/2000/svg" xmlns:xlink="http://www.w3.org/1999/xlink" viewBox="0 0 167.17 200.12"><defs><style>.cls-1,.cls-12,.cls-15,.cls-18,.cls-19,.cls-20,.cls-28,.cls-29,.cls-3,.cls-30,.cls-7{fill:none;}.cls-1,.cls-19,.cls-29{stroke:#fff;}.cls-1,.cls-12,.cls-14,.cls-3,.cls-7{stroke-miterlimit:10;}.cls-1,.cls-29{stroke-width:8px;}.cls-2{fill:#d69d51;}.cls-3{stroke:#510600;stroke-width:3px;}.cls-4{fill:#936845;}.cls-5{fill:#833021;}.cls-6{fill:#c2e5f8;}.cls-14,.cls-15,.cls-7{stroke:#833021;}.cls-8{fill:#f7b2c6;}.cls-14,.cls-9{fill:#f3e2c0;}.cls-10{fill:#8e6849;}.cls-11{fill:#dbbc5b;}.cls-12{stroke:#5b1910;stroke-width:1.22px;}.cls-13{fill:#a376ce;}.cls-15,.cls-18,.cls-19,.cls-20,.cls-28,.cls-29,.cls-30{stroke-linecap:round;stroke-linejoin:round;}.cls-16{fill:#c2d5fb;}.cls-17{fill:#ffe0f4;}.cls-18,.cls-20,.cls-28,.cls-30{stroke:#1b1464;}.cls-18{stroke-width:16px;}.cls-19,.cls-28{stroke-width:12px;}.cls-20{stroke-width:6px;}.cls-21{fill:url(#linear-gradient);}.cls-22{fill:url(#linear-gradient-2);}.cls-23{fill:url(#linear-gradient-3);}.cls-24{fill:url(#linear-gradient-4);}.cls-25{fill:url(#linear-gradient-5);}.cls-26{fill:url(#linear-gradient-6);}.cls-27{fill:url(#linear-gradient-7);}.cls-30{stroke-width:4px;}.cls-31{fill:url(#linear-gradient-8);}.cls-32{fill:url(#linear-gradient-9);}.cls-33{fill:url(#linear-gradient-10);}.cls-34{fill:url(#linear-gradient-11);}.cls-35{fill:url(#linear-gradient-12);}.cls-36{fill:url(#linear-gradient-13);}.cls-37{fill:url(#linear-gradient-14);}.cls-38{fill:url(#linear-gradient-15);}</style><linearGradient id="linear-gradient" x1="225.4" y1="-18.55" x2="225.4" y2="59.57" gradientUnits="userSpaceOnUse"><stop offset="0.7" stop-color="#e5c500"/><stop offset="0.79" stop-color="#ef9b00"/><stop offset="0.88" stop-color="#f87500"/><stop offset="0.95" stop-color="#fd5e00"/><stop offset="1" stop-color="#f50"/></linearGradient><linearGradient id="linear-gradient-2" x1="244.61" y1="-12.35" x2="244.61" y2="54" xlink:href="#linear-gradient"/><linearGradient id="linear-gradient-3" x1="258.8" y1="-12.4" x2="258.8" y2="53.24" xlink:href="#linear-gradient"/><linearGradient id="linear-gradient-4" x1="283.95" y1="-11.7" x2="283.95" y2="52.51" xlink:href="#linear-gradient"/><linearGradient id="linear-gradient-5" x1="308.97" y1="-11.88" x2="308.97" y2="53.46" xlink:href="#linear-gradient"/><linearGradient id="linear-gradient-6" x1="328.68" y1="-13.42" x2="328.68" y2="55.28" xlink:href="#linear-gradient"/><linearGradient id="linear-gradient-7" x1="338.18" y1="-16.1" x2="338.18" y2="58.04" xlink:href="#linear-gradient"/><linearGradient id="linear-gradient-8" x1="246.84" y1="17.44" x2="246.84" y2="79.99" xlink:href="#linear-gradient"/><linearGradient id="linear-gradient-9" x1="260.64" y1="19.01" x2="260.64" y2="76.46" xlink:href="#linear-gradient"/><linearGradient id="linear-gradient-10" x1="269.56" y1="18.89" x2="269.56" y2="75.89" xlink:href="#linear-gradient"/><linearGradient id="linear-gradient-11" x1="275.29" y1="19.04" x2="275.29" y2="75.62" xlink:href="#linear-gradient"/><linearGradient id="linear-gradient-12" x1="284.03" y1="18.72" x2="284.03" y2="75.78" xlink:href="#linear-gradient"/><linearGradient id="linear-gradient-13" x1="295.73" y1="18.77" x2="295.73" y2="76.62" xlink:href="#linear-gradient"/><linearGradient id="linear-gradient-14" x1="306.37" y1="19.2" x2="306.37" y2="77.63" xlink:href="#linear-gradient"/><linearGradient id="linear-gradient-15" x1="315.96" y1="18.7" x2="315.96" y2="78.76" xlink:href="#linear-gradient"/></defs><g id="maskkk"><path class="cls-1" d="M347.77,94.05c-12.48-7.3-32.54-1.67-40.24,15.53,0,0-27.41-17.77-55.06,0-7.7-17.2-27.75-22.83-40.24-15.53-14.24,8.33-15.11,31.23-5.29,43.76,5.92,7.57,14.56,9.85,18.35,10.59-6.7,37.77,13.77,51.18,13.77,51.18s-5,7.3-2.31,10.37c1.59,1.84,5.92,2.16,15.72-1.55q26.7,6.9,55.06,0c26.12,9.88,13.41-8.82,13.41-8.82s20.47-13.41,13.77-51.18c3.79-.74,12.43-3,18.35-10.59C362.88,125.28,362,102.38,347.77,94.05Z" transform="translate(-196.41 -15.74)"/><path class="cls-2" d="M347.77,94.05c-12.48-7.3-32.54-1.67-40.24,15.53,0,0-27.41-17.77-55.06,0-7.7-17.2-27.75-22.83-40.24-15.53-14.24,8.33-15.11,31.23-5.29,43.76,5.92,7.57,14.56,9.85,18.35,10.59-6.7,37.77,13.77,51.18,13.77,51.18s-5,7.3-2.31,10.37c1.59,1.84,5.92,2.16,15.72-1.55q26.7,6.9,55.06,0c26.12,9.88,13.41-8.82,13.41-8.82s20.47-13.41,13.77-51.18c3.79-.74,12.43-3,18.35-10.59C362.88,125.28,362,102.38,347.77,94.05Z" transform="translate(-196.41 -15.74)"/><path class="cls-3" d="M347.77,94.05c-12.48-7.3-32.54-1.67-40.24,15.53,0,0-27.41-17.77-55.06,0-7.7-17.2-27.75-22.83-40.24-15.53-14.24,8.33-15.11,31.23-5.29,43.76,5.92,7.57,14.56,9.85,18.35,10.59-6.7,37.77,13.77,51.18,13.77,51.18s-5,7.3-2.31,10.37c1.59,1.84,5.92,2.16,15.72-1.55q26.7,6.9,55.06,0c26.12,9.88,13.41-8.82,13.41-8.82s20.47-13.41,13.77-51.18c3.79-.74,12.43-3,18.35-10.59C362.88,125.28,362,102.38,347.77,94.05Z" transform="translate(-196.41 -15.74)"/></g><ellipse class="cls-4" cx="331.2" cy="117.65" rx="19.84" ry="15.26" transform="translate(-153.51 302.97) rotate(-54.45)"/><path class="cls-5" d="M319,109a23.48,23.48,0,0,0-4.61,12.7,16.32,16.32,0,0,0,1.17,6.7,11.68,11.68,0,0,0,10.55,7.4,16.23,16.23,0,0,0,6.64-1.13,23.83,23.83,0,0,0,14.46-21,15.64,15.64,0,0,0-1.17-6.37,11.59,11.59,0,0,0-3.91-4.94c-3.48-2.47-8.22-2.73-12.41-1.3a20.78,20.78,0,0,0-5.93,3.11A25.43,25.43,0,0,0,319,109Zm-.49-.35a26.07,26.07,0,0,1,4.7-5.2,22.52,22.52,0,0,1,6-3.73,17.09,17.09,0,0,1,7.1-1.32,13.17,13.17,0,0,1,7,2.35,13.4,13.4,0,0,1,4.49,5.83,17.42,17.42,0,0,1,1.21,7.15,24.88,24.88,0,0,1-16,21.62,16.82,16.82,0,0,1-6.92,1,12.35,12.35,0,0,1-10.76-7.82,16.62,16.62,0,0,1-1.21-6.82A23.89,23.89,0,0,1,318.54,108.6Z" transform="translate(-196.41 -15.74)"/><path class="cls-5" d="M280.5,157.78a10.51,10.51,0,0,1-1.05,2.79,5.75,5.75,0,0,1-2.26,2.22,6.51,6.51,0,0,1-3.2.65,11.4,11.4,0,0,1-3.11-.55,1.19,1.19,0,1,1,.75-2.26l.1,0h0a11.58,11.58,0,0,0,2.45.87,5,5,0,0,0,2.45,0,4.57,4.57,0,0,0,2.07-1.45,9.19,9.19,0,0,0,1.41-2.39.2.2,0,0,1,.26-.11A.21.21,0,0,1,280.5,157.78Z" transform="translate(-196.41 -15.74)"/><ellipse class="cls-6" cx="310.68" cy="137.31" rx="19.78" ry="21.76" transform="translate(-221.72 171.45) rotate(-32.29)"/><path class="cls-5" d="M331.56,141.93a21.1,21.1,0,0,1-2.6,8,18.64,18.64,0,0,1-13.67,9.21,20.53,20.53,0,0,1-8.4-.63,23.24,23.24,0,0,1-13.14-9.88,23.62,23.62,0,0,1-3.67-15.91,21.4,21.4,0,0,1,2.71-7.8,18.77,18.77,0,0,1,5.68-6,19,19,0,0,1,7.67-2.92,20,20,0,0,1,8.19.52,23.3,23.3,0,0,1,13.17,9.48A23.59,23.59,0,0,1,331.56,141.93Zm-1.38-.17a22.49,22.49,0,0,0-3.47-15.18,22.26,22.26,0,0,0-12.53-9.45,19.29,19.29,0,0,0-8-.55,17.54,17.54,0,0,0-7.43,2.87,18.07,18.07,0,0,0-5.43,5.81,19.33,19.33,0,0,0-2.48,7.56A22.81,22.81,0,0,0,307.3,157a18.28,18.28,0,0,0,14.94-2.34,17.65,17.65,0,0,0,5.35-5.56A19.4,19.4,0,0,0,330.18,141.76Z" transform="translate(-196.41 -15.74)"/><line class="cls-7" x1="83.89" y1="137.91" x2="83.89" y2="142.91"/><path class="cls-5" d="M280.5,157.66a9.19,9.19,0,0,0,1.41,2.39A4.57,4.57,0,0,0,284,161.5a5,5,0,0,0,2.45,0,11.58,11.58,0,0,0,2.45-.87h0a1.19,1.19,0,0,1,1,2.17l-.11,0a11.4,11.4,0,0,1-3.11.55,6.51,6.51,0,0,1-3.2-.65,5.75,5.75,0,0,1-2.26-2.22,9.87,9.87,0,0,1-1.05-2.79.2.2,0,0,1,.15-.24A.21.21,0,0,1,280.5,157.66Z" transform="translate(-196.41 -15.74)"/><ellipse class="cls-8" cx="83.59" cy="132.88" rx="10.44" ry="6.94"/><path class="cls-5" d="M290.87,148.62a5.82,5.82,0,0,1-1.2,3.48,9,9,0,0,1-2.76,2.36,14.43,14.43,0,0,1-6.91,1.71,14.88,14.88,0,0,1-6.9-1.72,8.79,8.79,0,0,1-2.76-2.36,5.34,5.34,0,0,1,.09-6.88,8.92,8.92,0,0,1,2.78-2.23,14.48,14.48,0,0,1,6.79-1.55,15,15,0,0,1,6.78,1.56,8.71,8.71,0,0,1,2.79,2.23A5.76,5.76,0,0,1,290.87,148.62Zm-.86,0a5,5,0,0,0-1-3,8.05,8.05,0,0,0-2.5-2.13,13.36,13.36,0,0,0-6.49-1.6,13.89,13.89,0,0,0-6.49,1.61c-1.93,1.05-3.55,2.94-3.52,5.08s1.72,3.89,3.63,4.88A13.63,13.63,0,0,0,280,155a14.24,14.24,0,0,0,6.37-1.46C288.29,152.51,290,150.75,290,148.62Z" transform="translate(-196.41 -15.74)"/><polygon class="cls-9" points="103.49 118.85 109.69 122.28 106.13 129.17 107.91 130.09 111.44 123.25 118.31 127.06 119.68 124.59 112.74 120.75 115.99 114.45 114.22 113.53 110.99 119.78 104.86 116.38 103.49 118.85"/><path class="cls-5" d="M299.9,134.59c2.33,1.08,4.5,1.95,6.51,2.88l.5.24-.25.6c-.5,1.19-1,2.37-1.56,3.55s-1.05,2.37-1.6,3.54L303,144l1.81.85-1.55.49c.54-1.16,1.07-2.33,1.64-3.48l1.68-3.46.61-1.24,1.3.67c2.33,1.19,4.61,2.48,6.91,3.72l-2,.58c.45-.83.89-1.66,1.36-2.48l.58,2c-2.3-1.3-4.61-2.59-6.9-3.91l-1.23-.7.65-1.19,1.71-3.11c.57-1,1.12-2.08,1.72-3.1l.52,1.66-1.74-1,1.55-.49-1.74,3-1.79,3-.44.75-.67-.41c-1-.62-2-1.27-2.95-1.91s-1.95-1.29-2.93-1.94l.39-.11C301,133,300.45,133.73,299.9,134.59Zm0,0c.37-.79.7-1.68,1.12-2.61l.11-.24.28.13c1.07.48,2.14.95,3.2,1.45s2.13,1,3.18,1.49l-1.1.33,1.44-3.21,1.48-3.19.47-1,1.08.51,1.81.84,1.06.5-.53,1.16c-.49,1.08-1,2.13-1.54,3.19l-1.55,3.19-.57-1.89c2.33,1.24,4.65,2.52,7,3.78l1.29.7-.71,1.33c-.44.83-.92,1.64-1.38,2.46l-.73,1.31-1.28-.73c-2.28-1.3-4.58-2.54-6.83-3.89l1.91-.57L307.24,143c-.61,1.13-1.26,2.24-1.9,3.35l-.58,1.05-1-.55-1.74-1-1-.55.5-.9c.64-1.12,1.31-2.23,2-3.35s1.32-2.22,2-3.33l.25.84C303.67,137.21,301.71,135.8,299.9,134.59Z" transform="translate(-196.41 -15.74)"/><polygon class="cls-9" points="103.49 118.85 109.69 122.28 106.13 129.17 107.91 130.09 111.44 123.25 118.31 127.06 119.68 124.59 112.74 120.75 115.99 114.45 114.22 113.53 110.99 119.78 104.86 116.38 103.49 118.85"/><ellipse class="cls-10" cx="228.85" cy="117.65" rx="15.26" ry="19.84" transform="translate(-222.16 139.26) rotate(-35.55)"/><path class="cls-5" d="M241.56,108.57a24,24,0,0,1,4.38,13.07,16.75,16.75,0,0,1-1.21,6.82A12.45,12.45,0,0,1,234,136.33a16.8,16.8,0,0,1-6.95-1,25,25,0,0,1-16.12-21.67,17.3,17.3,0,0,1,1.2-7.22,13.6,13.6,0,0,1,4.56-5.9,13.11,13.11,0,0,1,7.06-2.36,17.24,17.24,0,0,1,7.14,1.35A25.51,25.51,0,0,1,241.56,108.57ZM241,109a22,22,0,0,0-10.72-7.85c-4.18-1.39-8.85-1.1-12.26,1.33s-5.11,6.83-5,11.17a23.69,23.69,0,0,0,14.33,20.93,16.08,16.08,0,0,0,6.61,1.15,11.64,11.64,0,0,0,10.53-7.37,16.08,16.08,0,0,0,1.17-6.69A23.35,23.35,0,0,0,241,109Z" transform="translate(-196.41 -15.74)"/><ellipse class="cls-11" cx="84.03" cy="172.94" rx="25.52" ry="19.24"/><circle class="cls-12" cx="83.59" cy="62.93" r="15.66"/><circle class="cls-8" cx="83.59" cy="62.93" r="15.66"/><path class="cls-13" d="M262.86,78.67a17.27,17.27,0,0,1,10.39-16.3A17.18,17.18,0,0,1,280,61a17.87,17.87,0,0,1,6.73,1.41,17.16,17.16,0,0,1,10.41,16.25A17.07,17.07,0,0,1,280,95.29a17.4,17.4,0,0,1-11.86-4.76,16.92,16.92,0,0,1-3.82-5.37A17.2,17.2,0,0,1,262.86,78.67Zm3,0a14.27,14.27,0,0,0,8.56,13.55A14,14,0,0,0,280,93.35a14.24,14.24,0,0,0,14.17-14.68A14.08,14.08,0,0,0,280,65a14.45,14.45,0,0,0-9.76,3.89A13.82,13.82,0,0,0,265.83,78.67Z" transform="translate(-196.41 -15.74)"/><path class="cls-14" d="M175.06,69.59" transform="translate(-196.41 -15.74)"/><path class="cls-15" d="M280.44,155.55" transform="translate(-196.41 -15.74)"/><ellipse class="cls-16" cx="249.94" cy="137.31" rx="21.76" ry="19.78" transform="translate(-196.06 259.52) rotate(-57.71)"/><path class="cls-5" d="M230.43,141.76a19.57,19.57,0,0,0,2.59,7.36,17.79,17.79,0,0,0,5.36,5.56A18.28,18.28,0,0,0,253.32,157a22.81,22.81,0,0,0,16.42-24.2,19.49,19.49,0,0,0-2.48-7.56,18.07,18.07,0,0,0-5.43-5.81,17.59,17.59,0,0,0-7.43-2.87,19.29,19.29,0,0,0-8,.55,22.26,22.26,0,0,0-12.53,9.45A22.5,22.5,0,0,0,230.43,141.76Zm-1.37.17a23.59,23.59,0,0,1,4.06-15.88,23.3,23.3,0,0,1,13.17-9.48,20,20,0,0,1,8.19-.52,19,19,0,0,1,7.67,2.92,18.63,18.63,0,0,1,5.67,6,21,21,0,0,1,2.71,7.8,23.56,23.56,0,0,1-3.66,15.91,23.24,23.24,0,0,1-13.14,9.88,20.57,20.57,0,0,1-8.41.63,18.65,18.65,0,0,1-13.66-9.21A20.93,20.93,0,0,1,229.06,141.93Z" transform="translate(-196.41 -15.74)"/><polygon class="cls-9" points="64.3 118.85 58.1 122.28 61.66 129.17 59.88 130.09 56.35 123.25 49.48 127.06 48.11 124.59 55.05 120.75 51.8 114.45 53.57 113.53 56.8 119.78 62.93 116.38 64.3 118.85"/><path class="cls-5" d="M260.71,134.59c-1.8,1.21-3.77,2.62-5.89,4l.25-.84c.68,1.11,1.34,2.22,2,3.33s1.32,2.23,1.95,3.35l.51.9-1,.55-1.73,1-1,.55-.59-1.05c-.63-1.11-1.28-2.22-1.89-3.35l-1.85-3.37,1.9.57c-2.24,1.35-4.55,2.59-6.82,3.89l-1.28.73-.73-1.31c-.46-.82-.94-1.63-1.38-2.46l-.71-1.33,1.29-.7c2.33-1.26,4.64-2.54,7-3.78l-.57,1.89-1.55-3.19c-.52-1.06-1-2.11-1.54-3.19l-.53-1.16,1.06-.5,1.81-.84,1.08-.51.47,1,1.48,3.19,1.44,3.21-1.1-.33c1-.52,2.12-1,3.18-1.49s2.13-1,3.2-1.45l.28-.13.1.24C260,132.91,260.35,133.8,260.71,134.59Zm0,0c-.54-.86-1.13-1.61-1.61-2.33l.38.11c-1,.65-1.94,1.31-2.92,1.94s-2,1.29-3,1.91l-.66.41-.44-.75-1.79-3-1.75-3,1.55.49-1.73,1,.52-1.66c.6,1,1.15,2.07,1.72,3.1l1.7,3.11.65,1.19-1.22.7c-2.29,1.32-4.6,2.61-6.9,3.91l.58-2c.47.82.91,1.65,1.36,2.48l-2-.58c2.31-1.24,4.59-2.53,6.92-3.72l1.3-.67.6,1.24,1.69,3.46c.57,1.15,1.09,2.32,1.64,3.48l-1.55-.49,1.81-.85-.46,1.45c-.55-1.17-1.07-2.36-1.6-3.54s-1.06-2.36-1.56-3.55l-.26-.6.51-.24C256.21,136.54,258.39,135.67,260.71,134.59Z" transform="translate(-196.41 -15.74)"/><polygon class="cls-9" points="64.3 118.85 58.1 122.28 61.66 129.17 59.88 130.09 56.35 123.25 49.48 127.06 48.11 124.59 55.05 120.75 51.8 114.45 53.57 113.53 56.8 119.78 62.93 116.38 64.3 118.85"/><ellipse class="cls-17" cx="80.14" cy="130.53" rx="2.47" ry="1.65"/><path d="M234.13,35.74c-.16-2.9-.34-6.4-.28-9h-.11c-.85,2.49-1.88,5.16-3.13,8.17-1.74,4.24-2.62,6.4-4.36,10.81l-2.36.32c-1.53-3.94-2.29-5.95-3.82-10a84.35,84.35,0,0,1-2.75-8.49h-.07c-.09,2.81-.29,6.61-.52,10-.28,3.9-.42,5.86-.69,9.79l-3,.48c.71-9.32,1.07-13.94,1.78-23.1l4-.16c1.62,4.26,2.43,6.35,4.05,10.45,1,2.61,1.79,4.91,2.38,7.09h.11a76.77,76.77,0,0,1,2.61-7.5c1.75-4.28,2.64-6.38,4.4-10.5l4-.11c.53,8.26.8,12.37,1.32,20.54l-3.05.32C234.44,41.2,234.34,39.38,234.13,35.74Z" transform="translate(-196.41 -15.74)"/><path d="M246.58,25.33c0,.87-.78,1.62-2,1.66a1.66,1.66,0,0,1-1.89-1.56,1.85,1.85,0,0,1,2-1.69A1.69,1.69,0,0,1,246.58,25.33ZM242.87,44c.06-5.81.08-8.71.14-14.52l3.17-.12c-.05,5.74-.08,8.62-.13,14.37Z" transform="translate(-196.41 -15.74)"/><path d="M251.42,33c0-1.47,0-2.67-.12-3.83l2.82-.09c.06.93.1,1.4.16,2.32h.07a7,7,0,0,1,5.8-2.78c2.42,0,6.17,1,6.15,5.75,0,3.29,0,4.94,0,8.23l-3.19.11,0-8c0-2.23-1-4.07-4-4a4.64,4.64,0,0,0-4.28,2.73,3.21,3.21,0,0,0-.23,1.2c0,3.38,0,5.07-.06,8.46-1.28.07-1.91.11-3.19.2C251.37,39.23,251.38,37.16,251.42,33Z" transform="translate(-196.41 -15.74)"/><path d="M271.49,32.51c0-1.42,0-2.58-.14-3.71l2.79,0c.05.88.08,1.32.14,2.2h.11a6.36,6.36,0,0,1,5.49-2.52,5.24,5.24,0,0,1,5,2.77h.07a6.27,6.27,0,0,1,1.95-1.77,7.07,7.07,0,0,1,3.87-.92c2.31,0,5.75,1.31,5.78,6.13,0,3.27,0,4.91,0,8.18l-3.12-.13c0-3.13,0-4.69,0-7.82,0-2.66-1.26-4.29-3.82-4.33a4,4,0,0,0-3.76,2.22,3.39,3.39,0,0,0-.25,1.25c0,3.39,0,5.08,0,8.47l-3.12,0v-8.2a3.45,3.45,0,0,0-3.66-3.77,4.26,4.26,0,0,0-3.95,2.5,2.78,2.78,0,0,0-.25,1.22c0,3.3,0,4.95,0,8.25-1.25,0-1.88,0-3.13,0C271.47,38.51,271.48,36.51,271.49,32.51Z" transform="translate(-196.41 -15.74)"/><path d="M317.5,36.88c.05,5.43-4.39,7.36-8.62,7-4.74-.37-8.42-3.33-8.45-7.76,0-4.68,3.77-7.34,8.61-7.17C314.05,29.16,317.46,32.39,317.5,36.88Zm-13.86-.67A5.71,5.71,0,0,0,309,42c3,.22,5.29-2,5.26-5.23,0-2.46-1.53-5.66-5.28-5.82S303.62,33.53,303.64,36.21Z" transform="translate(-196.41 -15.74)"/><path class="cls-18" d="M234.13,35.74c-.16-2.9-.34-6.4-.28-9h-.11c-.85,2.49-1.88,5.16-3.13,8.17-1.74,4.24-2.62,6.4-4.36,10.81l-2.36.32c-1.53-3.94-2.29-5.95-3.82-10a84.35,84.35,0,0,1-2.75-8.49h-.07c-.09,2.81-.29,6.61-.52,10-.28,3.9-.42,5.86-.69,9.79l-3,.48c.71-9.32,1.07-13.94,1.78-23.1l4-.16c1.62,4.26,2.43,6.35,4.05,10.45,1,2.61,1.79,4.91,2.38,7.09h.11a76.77,76.77,0,0,1,2.61-7.5c1.75-4.28,2.64-6.38,4.4-10.5l4-.11c.53,8.26.8,12.37,1.32,20.54l-3.05.32C234.44,41.2,234.34,39.38,234.13,35.74Z" transform="translate(-196.41 -15.74)"/><path class="cls-18" d="M246.58,25.33c0,.87-.78,1.62-2,1.66a1.66,1.66,0,0,1-1.89-1.56,1.85,1.85,0,0,1,2-1.69A1.69,1.69,0,0,1,246.58,25.33ZM242.87,44c.06-5.81.08-8.71.14-14.52l3.17-.12c-.05,5.74-.08,8.62-.13,14.37Z" transform="translate(-196.41 -15.74)"/><path class="cls-18" d="M251.42,33c0-1.47,0-2.67-.12-3.83l2.82-.09c.06.93.1,1.4.16,2.32h.07a7,7,0,0,1,5.8-2.78c2.42,0,6.17,1,6.15,5.75,0,3.29,0,4.94,0,8.23l-3.19.11,0-8c0-2.23-1-4.07-4-4a4.64,4.64,0,0,0-4.28,2.73,3.21,3.21,0,0,0-.23,1.2c0,3.38,0,5.07-.06,8.46-1.28.07-1.91.11-3.19.2C251.37,39.23,251.38,37.16,251.42,33Z" transform="translate(-196.41 -15.74)"/><path class="cls-18" d="M271.49,32.51c0-1.42,0-2.58-.14-3.71l2.79,0c.05.88.08,1.32.14,2.2h.11a6.36,6.36,0,0,1,5.49-2.52,5.24,5.24,0,0,1,5,2.77h.07a6.27,6.27,0,0,1,1.95-1.77,7.07,7.07,0,0,1,3.87-.92c2.31,0,5.75,1.31,5.78,6.13,0,3.27,0,4.91,0,8.18l-3.12-.13c0-3.13,0-4.69,0-7.82,0-2.66-1.26-4.29-3.82-4.33a4,4,0,0,0-3.76,2.22,3.39,3.39,0,0,0-.25,1.25c0,3.39,0,5.08,0,8.47l-3.12,0v-8.2a3.45,3.45,0,0,0-3.66-3.77,4.26,4.26,0,0,0-3.95,2.5,2.78,2.78,0,0,0-.25,1.22c0,3.3,0,4.95,0,8.25-1.25,0-1.88,0-3.13,0C271.47,38.51,271.48,36.51,271.49,32.51Z" transform="translate(-196.41 -15.74)"/><path class="cls-18" d="M317.5,36.88c.05,5.43-4.39,7.36-8.62,7-4.74-.37-8.42-3.33-8.45-7.76,0-4.68,3.77-7.34,8.61-7.17C314.05,29.16,317.46,32.39,317.5,36.88Zm-13.86-.67A5.71,5.71,0,0,0,309,42c3,.22,5.29-2,5.26-5.23,0-2.46-1.53-5.66-5.28-5.82S303.62,33.53,303.64,36.21Z" transform="translate(-196.41 -15.74)"/><path class="cls-19" d="M234.13,35.74c-.16-2.9-.34-6.4-.28-9h-.11c-.85,2.49-1.88,5.16-3.13,8.17-1.74,4.24-2.62,6.4-4.36,10.81l-2.36.32c-1.53-3.94-2.29-5.95-3.82-10a84.35,84.35,0,0,1-2.75-8.49h-.07c-.09,2.81-.29,6.61-.52,10-.28,3.9-.42,5.86-.69,9.79l-3,.48c.71-9.32,1.07-13.94,1.78-23.1l4-.16c1.62,4.26,2.43,6.35,4.05,10.45,1,2.61,1.79,4.91,2.38,7.09h.11a76.77,76.77,0,0,1,2.61-7.5c1.75-4.28,2.64-6.38,4.4-10.5l4-.11c.53,8.26.8,12.37,1.32,20.54l-3.05.32C234.44,41.2,234.34,39.38,234.13,35.74Z" transform="translate(-196.41 -15.74)"/><path class="cls-19" d="M246.58,25.33c0,.87-.78,1.62-2,1.66a1.66,1.66,0,0,1-1.89-1.56,1.85,1.85,0,0,1,2-1.69A1.69,1.69,0,0,1,246.58,25.33ZM242.87,44c.06-5.81.08-8.71.14-14.52l3.17-.12c-.05,5.74-.08,8.62-.13,14.37Z" transform="translate(-196.41 -15.74)"/><path class="cls-19" d="M251.42,33c0-1.47,0-2.67-.12-3.83l2.82-.09c.06.93.1,1.4.16,2.32h.07a7,7,0,0,1,5.8-2.78c2.42,0,6.17,1,6.15,5.75,0,3.29,0,4.94,0,8.23l-3.19.11,0-8c0-2.23-1-4.07-4-4a4.64,4.64,0,0,0-4.28,2.73,3.21,3.21,0,0,0-.23,1.2c0,3.38,0,5.07-.06,8.46-1.28.07-1.91.11-3.19.2C251.37,39.23,251.38,37.16,251.42,33Z" transform="translate(-196.41 -15.74)"/><path class="cls-19" d="M271.49,32.51c0-1.42,0-2.58-.14-3.71l2.79,0c.05.88.08,1.32.14,2.2h.11a6.36,6.36,0,0,1,5.49-2.52,5.24,5.24,0,0,1,5,2.77h.07a6.27,6.27,0,0,1,1.95-1.77,7.07,7.07,0,0,1,3.87-.92c2.31,0,5.75,1.31,5.78,6.13,0,3.27,0,4.91,0,8.18l-3.12-.13c0-3.13,0-4.69,0-7.82,0-2.66-1.26-4.29-3.82-4.33a4,4,0,0,0-3.76,2.22,3.39,3.39,0,0,0-.25,1.25c0,3.39,0,5.08,0,8.47l-3.12,0v-8.2a3.45,3.45,0,0,0-3.66-3.77,4.26,4.26,0,0,0-3.95,2.5,2.78,2.78,0,0,0-.25,1.22c0,3.3,0,4.95,0,8.25-1.25,0-1.88,0-3.13,0C271.47,38.51,271.48,36.51,271.49,32.51Z" transform="translate(-196.41 -15.74)"/><path class="cls-19" d="M317.5,36.88c.05,5.43-4.39,7.36-8.62,7-4.74-.37-8.42-3.33-8.45-7.76,0-4.68,3.77-7.34,8.61-7.17C314.05,29.16,317.46,32.39,317.5,36.88Zm-13.86-.67A5.71,5.71,0,0,0,309,42c3,.22,5.29-2,5.26-5.23,0-2.46-1.53-5.66-5.28-5.82S303.62,33.53,303.64,36.21Z" transform="translate(-196.41 -15.74)"/><path class="cls-20" d="M234.13,35.74c-.16-2.9-.34-6.4-.28-9h-.11c-.85,2.49-1.88,5.16-3.13,8.17-1.74,4.24-2.62,6.4-4.36,10.81l-2.36.32c-1.53-3.94-2.29-5.95-3.82-10a84.35,84.35,0,0,1-2.75-8.49h-.07c-.09,2.81-.29,6.61-.52,10-.28,3.9-.42,5.86-.69,9.79l-3,.48c.71-9.32,1.07-13.94,1.78-23.1l4-.16c1.62,4.26,2.43,6.35,4.05,10.45,1,2.61,1.79,4.91,2.38,7.09h.11a76.77,76.77,0,0,1,2.61-7.5c1.75-4.28,2.64-6.38,4.4-10.5l4-.11c.53,8.26.8,12.37,1.32,20.54l-3.05.32C234.44,41.2,234.34,39.38,234.13,35.74Z" transform="translate(-196.41 -15.74)"/><path class="cls-20" d="M246.58,25.33c0,.87-.78,1.62-2,1.66a1.66,1.66,0,0,1-1.89-1.56,1.85,1.85,0,0,1,2-1.69A1.69,1.69,0,0,1,246.58,25.33ZM242.87,44c.06-5.81.08-8.71.14-14.52l3.17-.12c-.05,5.74-.08,8.62-.13,14.37Z" transform="translate(-196.41 -15.74)"/><path class="cls-20" d="M251.42,33c0-1.47,0-2.67-.12-3.83l2.82-.09c.06.93.1,1.4.16,2.32h.07a7,7,0,0,1,5.8-2.78c2.42,0,6.17,1,6.15,5.75,0,3.29,0,4.94,0,8.23l-3.19.11,0-8c0-2.23-1-4.07-4-4a4.64,4.64,0,0,0-4.28,2.73,3.21,3.21,0,0,0-.23,1.2c0,3.38,0,5.07-.06,8.46-1.28.07-1.91.11-3.19.2C251.37,39.23,251.38,37.16,251.42,33Z" transform="translate(-196.41 -15.74)"/><path class="cls-20" d="M271.49,32.51c0-1.42,0-2.58-.14-3.71l2.79,0c.05.88.08,1.32.14,2.2h.11a6.36,6.36,0,0,1,5.49-2.52,5.24,5.24,0,0,1,5,2.77h.07a6.27,6.27,0,0,1,1.95-1.77,7.07,7.07,0,0,1,3.87-.92c2.31,0,5.75,1.31,5.78,6.13,0,3.27,0,4.91,0,8.18l-3.12-.13c0-3.13,0-4.69,0-7.82,0-2.66-1.26-4.29-3.82-4.33a4,4,0,0,0-3.76,2.22,3.39,3.39,0,0,0-.25,1.25c0,3.39,0,5.08,0,8.47l-3.12,0v-8.2a3.45,3.45,0,0,0-3.66-3.77,4.26,4.26,0,0,0-3.95,2.5,2.78,2.78,0,0,0-.25,1.22c0,3.3,0,4.95,0,8.25-1.25,0-1.88,0-3.13,0C271.47,38.51,271.48,36.51,271.49,32.51Z" transform="translate(-196.41 -15.74)"/><path class="cls-20" d="M317.5,36.88c.05,5.43-4.39,7.36-8.62,7-4.74-.37-8.42-3.33-8.45-7.76,0-4.68,3.77-7.34,8.61-7.17C314.05,29.16,317.46,32.39,317.5,36.88Zm-13.86-.67A5.71,5.71,0,0,0,309,42c3,.22,5.29-2,5.26-5.23,0-2.46-1.53-5.66-5.28-5.82S303.62,33.53,303.64,36.21Z" transform="translate(-196.41 -15.74)"/><path class="cls-21" d="M234.13,35.74c-.16-2.9-.34-6.4-.28-9h-.11c-.85,2.49-1.88,5.16-3.13,8.17-1.74,4.24-2.62,6.4-4.36,10.81l-2.36.32c-1.53-3.94-2.29-5.95-3.82-10a84.35,84.35,0,0,1-2.75-8.49h-.07c-.09,2.81-.29,6.61-.52,10-.28,3.9-.42,5.86-.69,9.79l-3,.48c.71-9.32,1.07-13.94,1.78-23.1l4-.16c1.62,4.26,2.43,6.35,4.05,10.45,1,2.61,1.79,4.91,2.38,7.09h.11a76.77,76.77,0,0,1,2.61-7.5c1.75-4.28,2.64-6.38,4.4-10.5l4-.11c.53,8.26.8,12.37,1.32,20.54l-3.05.32C234.44,41.2,234.34,39.38,234.13,35.74Z" transform="translate(-196.41 -15.74)"/><path class="cls-22" d="M246.58,25.33c0,.87-.78,1.62-2,1.66a1.66,1.66,0,0,1-1.89-1.56,1.85,1.85,0,0,1,2-1.69A1.69,1.69,0,0,1,246.58,25.33ZM242.87,44c.06-5.81.08-8.71.14-14.52l3.17-.12c-.05,5.74-.08,8.62-.13,14.37Z" transform="translate(-196.41 -15.74)"/><path class="cls-23" d="M251.42,33c0-1.47,0-2.67-.12-3.83l2.82-.09c.06.93.1,1.4.16,2.32h.07a7,7,0,0,1,5.8-2.78c2.42,0,6.17,1,6.15,5.75,0,3.29,0,4.94,0,8.23l-3.19.11,0-8c0-2.23-1-4.07-4-4a4.64,4.64,0,0,0-4.28,2.73,3.21,3.21,0,0,0-.23,1.2c0,3.38,0,5.07-.06,8.46-1.28.07-1.91.11-3.19.2C251.37,39.23,251.38,37.16,251.42,33Z" transform="translate(-196.41 -15.74)"/><path class="cls-24" d="M271.49,32.51c0-1.42,0-2.58-.14-3.71l2.79,0c.05.88.08,1.32.14,2.2h.11a6.36,6.36,0,0,1,5.49-2.52,5.24,5.24,0,0,1,5,2.77h.07a6.27,6.27,0,0,1,1.95-1.77,7.07,7.07,0,0,1,3.87-.92c2.31,0,5.75,1.31,5.78,6.13,0,3.27,0,4.91,0,8.18l-3.12-.13c0-3.13,0-4.69,0-7.82,0-2.66-1.26-4.29-3.82-4.33a4,4,0,0,0-3.76,2.22,3.39,3.39,0,0,0-.25,1.25c0,3.39,0,5.08,0,8.47l-3.12,0v-8.2a3.45,3.45,0,0,0-3.66-3.77,4.26,4.26,0,0,0-3.95,2.5,2.78,2.78,0,0,0-.25,1.22c0,3.3,0,4.95,0,8.25-1.25,0-1.88,0-3.13,0C271.47,38.51,271.48,36.51,271.49,32.51Z" transform="translate(-196.41 -15.74)"/><path class="cls-25" d="M317.5,36.88c.05,5.43-4.39,7.36-8.62,7-4.74-.37-8.42-3.33-8.45-7.76,0-4.68,3.77-7.34,8.61-7.17C314.05,29.16,317.46,32.39,317.5,36.88Zm-13.86-.67A5.71,5.71,0,0,0,309,42c3,.22,5.29-2,5.26-5.23,0-2.46-1.53-5.66-5.28-5.82S303.62,33.53,303.64,36.21Z" transform="translate(-196.41 -15.74)"/><path d="M326,31.44a35.69,35.69,0,0,1,3.28-7.37l2-.12a42.24,42.24,0,0,0-2.05,7.38Z" transform="translate(-196.41 -15.74)"/><path d="M333.3,43.29A10.35,10.35,0,0,0,337.46,45c2.28.33,3.35-.59,3.34-1.93s-.91-2.33-3.23-3.37c-3.1-1.39-4.6-3.06-4.62-4.94,0-2.52,2.23-4.46,6-4.2a9.35,9.35,0,0,1,4.26,1.33L342.4,34a7.35,7.35,0,0,0-3.55-1.24c-1.86-.15-2.9.75-2.89,1.93s1.06,2,3.31,3c3,1.38,4.55,3,4.56,5.49,0,2.9-2.32,4.54-6.43,3.92a12.61,12.61,0,0,1-4.87-1.76C332.84,44.53,333,44.12,333.3,43.29Z" transform="translate(-196.41 -15.74)"/><path class="cls-18" d="M326,31.44a35.69,35.69,0,0,1,3.28-7.37l2-.12a42.24,42.24,0,0,0-2.05,7.38Z" transform="translate(-196.41 -15.74)"/><path class="cls-18" d="M333.3,43.29A10.35,10.35,0,0,0,337.46,45c2.28.33,3.35-.59,3.34-1.93s-.91-2.33-3.23-3.37c-3.1-1.39-4.6-3.06-4.62-4.94,0-2.52,2.23-4.46,6-4.2a9.35,9.35,0,0,1,4.26,1.33L342.4,34a7.35,7.35,0,0,0-3.55-1.24c-1.86-.15-2.9.75-2.89,1.93s1.06,2,3.31,3c3,1.38,4.55,3,4.56,5.49,0,2.9-2.32,4.54-6.43,3.92a12.61,12.61,0,0,1-4.87-1.76C332.84,44.53,333,44.12,333.3,43.29Z" transform="translate(-196.41 -15.74)"/><path class="cls-19" d="M326,31.44a35.69,35.69,0,0,1,3.28-7.37l2-.12a42.24,42.24,0,0,0-2.05,7.38Z" transform="translate(-196.41 -15.74)"/><path class="cls-19" d="M333.3,43.29A10.35,10.35,0,0,0,337.46,45c2.28.33,3.35-.59,3.34-1.93s-.91-2.33-3.23-3.37c-3.1-1.39-4.6-3.06-4.62-4.94,0-2.52,2.23-4.46,6-4.2a9.35,9.35,0,0,1,4.26,1.33L342.4,34a7.35,7.35,0,0,0-3.55-1.24c-1.86-.15-2.9.75-2.89,1.93s1.06,2,3.31,3c3,1.38,4.55,3,4.56,5.49,0,2.9-2.32,4.54-6.43,3.92a12.61,12.61,0,0,1-4.87-1.76C332.84,44.53,333,44.12,333.3,43.29Z" transform="translate(-196.41 -15.74)"/><path class="cls-20" d="M326,31.44a35.69,35.69,0,0,1,3.28-7.37l2-.12a42.24,42.24,0,0,0-2.05,7.38Z" transform="translate(-196.41 -15.74)"/><path class="cls-20" d="M333.3,43.29A10.35,10.35,0,0,0,337.46,45c2.28.33,3.35-.59,3.34-1.93s-.91-2.33-3.23-3.37c-3.1-1.39-4.6-3.06-4.62-4.94,0-2.52,2.23-4.46,6-4.2a9.35,9.35,0,0,1,4.26,1.33L342.4,34a7.35,7.35,0,0,0-3.55-1.24c-1.86-.15-2.9.75-2.89,1.93s1.06,2,3.31,3c3,1.38,4.55,3,4.56,5.49,0,2.9-2.32,4.54-6.43,3.92a12.61,12.61,0,0,1-4.87-1.76C332.84,44.53,333,44.12,333.3,43.29Z" transform="translate(-196.41 -15.74)"/><path class="cls-26" d="M326,31.44a35.69,35.69,0,0,1,3.28-7.37l2-.12a42.24,42.24,0,0,0-2.05,7.38Z" transform="translate(-196.41 -15.74)"/><path class="cls-27" d="M333.3,43.29A10.35,10.35,0,0,0,337.46,45c2.28.33,3.35-.59,3.34-1.93s-.91-2.33-3.23-3.37c-3.1-1.39-4.6-3.06-4.62-4.94,0-2.52,2.23-4.46,6-4.2a9.35,9.35,0,0,1,4.26,1.33L342.4,34a7.35,7.35,0,0,0-3.55-1.24c-1.86-.15-2.9.75-2.89,1.93s1.06,2,3.31,3c3,1.38,4.55,3,4.56,5.49,0,2.9-2.32,4.54-6.43,3.92a12.61,12.61,0,0,1-4.87-1.76C332.84,44.53,333,44.12,333.3,43.29Z" transform="translate(-196.41 -15.74)"/><path d="M240.26,53a32.75,32.75,0,0,1,4.46-.8c3-.34,5.16.05,6.57,1a5,5,0,0,1,2.27,4.5,7.14,7.14,0,0,1-2.39,5.34,14.07,14.07,0,0,1-7.23,2.89c-1.5.23-2.75.38-3.81.47Zm2,11.68a16.76,16.76,0,0,0,2.12-.22c4.5-.67,6.95-3,7-6.51,0-3.09-2.11-4.9-6.55-4.39a13.77,13.77,0,0,0-2.46.47Z" transform="translate(-196.41 -15.74)"/><path d="M257.49,59.8c0,2.29,1.87,3.06,4,2.9a10.28,10.28,0,0,0,3.26-.69c.14.47.21.71.36,1.18a13.32,13.32,0,0,1-3.92.84c-3.63.27-5.78-1.38-5.76-4.2A5.52,5.52,0,0,1,261,54.39c3.84-.24,4.85,2.38,4.84,4.07a4.24,4.24,0,0,1-.08.78C262.45,59.41,260.79,59.52,257.49,59.8Zm6.28-1.65c0-1.06-.55-2.7-2.95-2.54a3.48,3.48,0,0,0-3.3,3C260,58.38,261.27,58.3,263.77,58.15Z" transform="translate(-196.41 -15.74)"/><path d="M268.51,50l2.14-.07c0,5.37,0,8.06,0,13.42l-2.15.09Z" transform="translate(-196.41 -15.74)"/><path d="M276.62,51.5c0,.55-.51,1-1.36,1s-1.29-.44-1.29-1,.56-1.05,1.34-1.06S276.61,50.93,276.62,51.5Zm-2.4,11.72V54.09l2.14,0v9.13C275.51,63.19,275.08,63.2,274.22,63.22Z" transform="translate(-196.41 -15.74)"/><path d="M280.75,54.07c.93,2,1.39,3.08,2.32,5.15a19.73,19.73,0,0,1,.95,2.36h.08a23,23,0,0,1,1-2.32c.91-2,1.37-3,2.27-5.07l2.24.08c-1.83,3.59-2.75,5.39-4.6,9L283,63.22c-1.8-3.69-2.69-5.52-4.48-9.16Z" transform="translate(-196.41 -15.74)"/><path d="M292.59,59.32c.06,2.27,1.91,3.31,4.05,3.48a9.82,9.82,0,0,0,3.26-.2c.15.49.22.74.37,1.24a12.07,12.07,0,0,1-3.91.24c-3.63-.29-5.8-2.25-5.82-5s2.07-4.88,5.5-4.66c3.83.24,4.86,3,4.88,4.74a5.7,5.7,0,0,1-.07.79C297.55,59.63,295.9,59.51,292.59,59.32Zm6.26-.78a2.86,2.86,0,0,0-3-2.95,2.91,2.91,0,0,0-3.26,2.53C295.11,58.26,296.36,58.34,298.85,58.54Z" transform="translate(-196.41 -15.74)"/><path d="M303.55,58.11c0-1.11,0-2.06-.12-2.94l1.86.17c0,.75,0,1.12.09,1.86h.1a3,3,0,0,1,3.22-1.73,2.55,2.55,0,0,1,.6.12l0,1.64a3.51,3.51,0,0,0-.73-.14,2.42,2.42,0,0,0-2.83,1.9,3.12,3.12,0,0,0-.09.79c0,2,0,3,0,5l-2.11-.25Z" transform="translate(-196.41 -15.74)"/><path d="M312.8,56.17c1.05,2.41,1.57,3.62,2.61,6.07.27.68.57,1.49.77,2.11h0c.22-.55.45-1.26.73-1.92.91-2.14,1.36-3.22,2.26-5.4l2.23.34c-1.24,2.63-1.86,3.94-3.1,6.52-1.49,3.11-2.52,4.63-3.95,5.42a5.38,5.38,0,0,1-2.59.7l-.55-1.55a5.61,5.61,0,0,0,1.85-.56,4.39,4.39,0,0,0,1.77-1.67,1,1,0,0,0,.17-.39,2.34,2.34,0,0,0-.15-.49c-1.76-3.85-2.64-5.74-4.4-9.47Z" transform="translate(-196.41 -15.74)"/><path class="cls-28" d="M240.26,53a32.75,32.75,0,0,1,4.46-.8c3-.34,5.16.05,6.57,1a5,5,0,0,1,2.27,4.5,7.14,7.14,0,0,1-2.39,5.34,14.07,14.07,0,0,1-7.23,2.89c-1.5.23-2.75.38-3.81.47Zm2,11.68a16.76,16.76,0,0,0,2.12-.22c4.5-.67,6.95-3,7-6.51,0-3.09-2.11-4.9-6.55-4.39a13.77,13.77,0,0,0-2.46.47Z" transform="translate(-196.41 -15.74)"/><path class="cls-28" d="M257.49,59.8c0,2.29,1.87,3.06,4,2.9a10.28,10.28,0,0,0,3.26-.69c.14.47.21.71.36,1.18a13.32,13.32,0,0,1-3.92.84c-3.63.27-5.78-1.38-5.76-4.2A5.52,5.52,0,0,1,261,54.39c3.84-.24,4.85,2.38,4.84,4.07a4.24,4.24,0,0,1-.08.78C262.45,59.41,260.79,59.52,257.49,59.8Zm6.28-1.65c0-1.06-.55-2.7-2.95-2.54a3.48,3.48,0,0,0-3.3,3C260,58.38,261.27,58.3,263.77,58.15Z" transform="translate(-196.41 -15.74)"/><path class="cls-28" d="M268.51,50l2.14-.07c0,5.37,0,8.06,0,13.42l-2.15.09Z" transform="translate(-196.41 -15.74)"/><path class="cls-28" d="M276.62,51.5c0,.55-.51,1-1.36,1s-1.29-.44-1.29-1,.56-1.05,1.34-1.06S276.61,50.93,276.62,51.5Zm-2.4,11.72V54.09l2.14,0v9.13C275.51,63.19,275.08,63.2,274.22,63.22Z" transform="translate(-196.41 -15.74)"/><path class="cls-28" d="M280.75,54.07c.93,2,1.39,3.08,2.32,5.15a19.73,19.73,0,0,1,.95,2.36h.08a23,23,0,0,1,1-2.32c.91-2,1.37-3,2.27-5.07l2.24.08c-1.83,3.59-2.75,5.39-4.6,9L283,63.22c-1.8-3.69-2.69-5.52-4.48-9.16Z" transform="translate(-196.41 -15.74)"/><path class="cls-28" d="M292.59,59.32c.06,2.27,1.91,3.31,4.05,3.48a9.82,9.82,0,0,0,3.26-.2c.15.49.22.74.37,1.24a12.07,12.07,0,0,1-3.91.24c-3.63-.29-5.8-2.25-5.82-5s2.07-4.88,5.5-4.66c3.83.24,4.86,3,4.88,4.74a5.7,5.7,0,0,1-.07.79C297.55,59.63,295.9,59.51,292.59,59.32Zm6.26-.78a2.86,2.86,0,0,0-3-2.95,2.91,2.91,0,0,0-3.26,2.53C295.11,58.26,296.36,58.34,298.85,58.54Z" transform="translate(-196.41 -15.74)"/><path class="cls-28" d="M303.55,58.11c0-1.11,0-2.06-.12-2.94l1.86.17c0,.75,0,1.12.09,1.86h.1a3,3,0,0,1,3.22-1.73,2.55,2.55,0,0,1,.6.12l0,1.64a3.51,3.51,0,0,0-.73-.14,2.42,2.42,0,0,0-2.83,1.9,3.12,3.12,0,0,0-.09.79c0,2,0,3,0,5l-2.11-.25Z" transform="translate(-196.41 -15.74)"/><path class="cls-28" d="M312.8,56.17c1.05,2.41,1.57,3.62,2.61,6.07.27.68.57,1.49.77,2.11h0c.22-.55.45-1.26.73-1.92.91-2.14,1.36-3.22,2.26-5.4l2.23.34c-1.24,2.63-1.86,3.94-3.1,6.52-1.49,3.11-2.52,4.63-3.95,5.42a5.38,5.38,0,0,1-2.59.7l-.55-1.55a5.61,5.61,0,0,0,1.85-.56,4.39,4.39,0,0,0,1.77-1.67,1,1,0,0,0,.17-.39,2.34,2.34,0,0,0-.15-.49c-1.76-3.85-2.64-5.74-4.4-9.47Z" transform="translate(-196.41 -15.74)"/><path class="cls-29" d="M240.26,53a32.75,32.75,0,0,1,4.46-.8c3-.34,5.16.05,6.57,1a5,5,0,0,1,2.27,4.5,7.14,7.14,0,0,1-2.39,5.34,14.07,14.07,0,0,1-7.23,2.89c-1.5.23-2.75.38-3.81.47Zm2,11.68a16.76,16.76,0,0,0,2.12-.22c4.5-.67,6.95-3,7-6.51,0-3.09-2.11-4.9-6.55-4.39a13.77,13.77,0,0,0-2.46.47Z" transform="translate(-196.41 -15.74)"/><path class="cls-29" d="M257.49,59.8c0,2.29,1.87,3.06,4,2.9a10.28,10.28,0,0,0,3.26-.69c.14.47.21.71.36,1.18a13.32,13.32,0,0,1-3.92.84c-3.63.27-5.78-1.38-5.76-4.2A5.52,5.52,0,0,1,261,54.39c3.84-.24,4.85,2.38,4.84,4.07a4.24,4.24,0,0,1-.08.78C262.45,59.41,260.79,59.52,257.49,59.8Zm6.28-1.65c0-1.06-.55-2.7-2.95-2.54a3.48,3.48,0,0,0-3.3,3C260,58.38,261.27,58.3,263.77,58.15Z" transform="translate(-196.41 -15.74)"/><path class="cls-29" d="M268.51,50l2.14-.07c0,5.37,0,8.06,0,13.42l-2.15.09Z" transform="translate(-196.41 -15.74)"/><path class="cls-29" d="M276.62,51.5c0,.55-.51,1-1.36,1s-1.29-.44-1.29-1,.56-1.05,1.34-1.06S276.61,50.93,276.62,51.5Zm-2.4,11.72V54.09l2.14,0v9.13C275.51,63.19,275.08,63.2,274.22,63.22Z" transform="translate(-196.41 -15.74)"/><path class="cls-29" d="M280.75,54.07c.93,2,1.39,3.08,2.32,5.15a19.73,19.73,0,0,1,.95,2.36h.08a23,23,0,0,1,1-2.32c.91-2,1.37-3,2.27-5.07l2.24.08c-1.83,3.59-2.75,5.39-4.6,9L283,63.22c-1.8-3.69-2.69-5.52-4.48-9.16Z" transform="translate(-196.41 -15.74)"/><path class="cls-29" d="M292.59,59.32c.06,2.27,1.91,3.31,4.05,3.48a9.82,9.82,0,0,0,3.26-.2c.15.49.22.74.37,1.24a12.07,12.07,0,0,1-3.91.24c-3.63-.29-5.8-2.25-5.82-5s2.07-4.88,5.5-4.66c3.83.24,4.86,3,4.88,4.74a5.7,5.7,0,0,1-.07.79C297.55,59.63,295.9,59.51,292.59,59.32Zm6.26-.78a2.86,2.86,0,0,0-3-2.95,2.91,2.91,0,0,0-3.26,2.53C295.11,58.26,296.36,58.34,298.85,58.54Z" transform="translate(-196.41 -15.74)"/><path class="cls-29" d="M303.55,58.11c0-1.11,0-2.06-.12-2.94l1.86.17c0,.75,0,1.12.09,1.86h.1a3,3,0,0,1,3.22-1.73,2.55,2.55,0,0,1,.6.12l0,1.64a3.51,3.51,0,0,0-.73-.14,2.42,2.42,0,0,0-2.83,1.9,3.12,3.12,0,0,0-.09.79c0,2,0,3,0,5l-2.11-.25Z" transform="translate(-196.41 -15.74)"/><path class="cls-29" d="M312.8,56.17c1.05,2.41,1.57,3.62,2.61,6.07.27.68.57,1.49.77,2.11h0c.22-.55.45-1.26.73-1.92.91-2.14,1.36-3.22,2.26-5.4l2.23.34c-1.24,2.63-1.86,3.94-3.1,6.52-1.49,3.11-2.52,4.63-3.95,5.42a5.38,5.38,0,0,1-2.59.7l-.55-1.55a5.61,5.61,0,0,0,1.85-.56,4.39,4.39,0,0,0,1.77-1.67,1,1,0,0,0,.17-.39,2.34,2.34,0,0,0-.15-.49c-1.76-3.85-2.64-5.74-4.4-9.47Z" transform="translate(-196.41 -15.74)"/><path class="cls-30" d="M240.26,53a32.75,32.75,0,0,1,4.46-.8c3-.34,5.16.05,6.57,1a5,5,0,0,1,2.27,4.5,7.14,7.14,0,0,1-2.39,5.34,14.07,14.07,0,0,1-7.23,2.89c-1.5.23-2.75.38-3.81.47Zm2,11.68a16.76,16.76,0,0,0,2.12-.22c4.5-.67,6.95-3,7-6.51,0-3.09-2.11-4.9-6.55-4.39a13.77,13.77,0,0,0-2.46.47Z" transform="translate(-196.41 -15.74)"/><path class="cls-30" d="M257.49,59.8c0,2.29,1.87,3.06,4,2.9a10.28,10.28,0,0,0,3.26-.69c.14.47.21.71.36,1.18a13.32,13.32,0,0,1-3.92.84c-3.63.27-5.78-1.38-5.76-4.2A5.52,5.52,0,0,1,261,54.39c3.84-.24,4.85,2.38,4.84,4.07a4.24,4.24,0,0,1-.08.78C262.45,59.41,260.79,59.52,257.49,59.8Zm6.28-1.65c0-1.06-.55-2.7-2.95-2.54a3.48,3.48,0,0,0-3.3,3C260,58.38,261.27,58.3,263.77,58.15Z" transform="translate(-196.41 -15.74)"/><path class="cls-30" d="M268.51,50l2.14-.07c0,5.37,0,8.06,0,13.42l-2.15.09Z" transform="translate(-196.41 -15.74)"/><path class="cls-30" d="M276.62,51.5c0,.55-.51,1-1.36,1s-1.29-.44-1.29-1,.56-1.05,1.34-1.06S276.61,50.93,276.62,51.5Zm-2.4,11.72V54.09l2.14,0v9.13C275.51,63.19,275.08,63.2,274.22,63.22Z" transform="translate(-196.41 -15.74)"/><path class="cls-30" d="M280.75,54.07c.93,2,1.39,3.08,2.32,5.15a19.73,19.73,0,0,1,.95,2.36h.08a23,23,0,0,1,1-2.32c.91-2,1.37-3,2.27-5.07l2.24.08c-1.83,3.59-2.75,5.39-4.6,9L283,63.22c-1.8-3.69-2.69-5.52-4.48-9.16Z" transform="translate(-196.41 -15.74)"/><path class="cls-30" d="M292.59,59.32c.06,2.27,1.91,3.31,4.05,3.48a9.82,9.82,0,0,0,3.26-.2c.15.49.22.74.37,1.24a12.07,12.07,0,0,1-3.91.24c-3.63-.29-5.8-2.25-5.82-5s2.07-4.88,5.5-4.66c3.83.24,4.86,3,4.88,4.74a5.7,5.7,0,0,1-.07.79C297.55,59.63,295.9,59.51,292.59,59.32Zm6.26-.78a2.86,2.86,0,0,0-3-2.95,2.91,2.91,0,0,0-3.26,2.53C295.11,58.26,296.36,58.34,298.85,58.54Z" transform="translate(-196.41 -15.74)"/><path class="cls-30" d="M303.55,58.11c0-1.11,0-2.06-.12-2.94l1.86.17c0,.75,0,1.12.09,1.86h.1a3,3,0,0,1,3.22-1.73,2.55,2.55,0,0,1,.6.12l0,1.64a3.51,3.51,0,0,0-.73-.14,2.42,2.42,0,0,0-2.83,1.9,3.12,3.12,0,0,0-.09.79c0,2,0,3,0,5l-2.11-.25Z" transform="translate(-196.41 -15.74)"/><path class="cls-30" d="M312.8,56.17c1.05,2.41,1.57,3.62,2.61,6.07.27.68.57,1.49.77,2.11h0c.22-.55.45-1.26.73-1.92.91-2.14,1.36-3.22,2.26-5.4l2.23.34c-1.24,2.63-1.86,3.94-3.1,6.52-1.49,3.11-2.52,4.63-3.95,5.42a5.38,5.38,0,0,1-2.59.7l-.55-1.55a5.61,5.61,0,0,0,1.85-.56,4.39,4.39,0,0,0,1.77-1.67,1,1,0,0,0,.17-.39,2.34,2.34,0,0,0-.15-.49c-1.76-3.85-2.64-5.74-4.4-9.47Z" transform="translate(-196.41 -15.74)"/><path class="cls-31" d="M240.26,53a32.75,32.75,0,0,1,4.46-.8c3-.34,5.16.05,6.57,1a5,5,0,0,1,2.27,4.5,7.14,7.14,0,0,1-2.39,5.34,14.07,14.07,0,0,1-7.23,2.89c-1.5.23-2.75.38-3.81.47Zm2,11.68a16.76,16.76,0,0,0,2.12-.22c4.5-.67,6.95-3,7-6.51,0-3.09-2.11-4.9-6.55-4.39a13.77,13.77,0,0,0-2.46.47Z" transform="translate(-196.41 -15.74)"/><path class="cls-32" d="M257.49,59.8c0,2.29,1.87,3.06,4,2.9a10.28,10.28,0,0,0,3.26-.69c.14.47.21.71.36,1.18a13.32,13.32,0,0,1-3.92.84c-3.63.27-5.78-1.38-5.76-4.2A5.52,5.52,0,0,1,261,54.39c3.84-.24,4.85,2.38,4.84,4.07a4.24,4.24,0,0,1-.08.78C262.45,59.41,260.79,59.52,257.49,59.8Zm6.28-1.65c0-1.06-.55-2.7-2.95-2.54a3.48,3.48,0,0,0-3.3,3C260,58.38,261.27,58.3,263.77,58.15Z" transform="translate(-196.41 -15.74)"/><path class="cls-33" d="M268.51,50l2.14-.07c0,5.37,0,8.06,0,13.42l-2.15.09Z" transform="translate(-196.41 -15.74)"/><path class="cls-34" d="M276.62,51.5c0,.55-.51,1-1.36,1s-1.29-.44-1.29-1,.56-1.05,1.34-1.06S276.61,50.93,276.62,51.5Zm-2.4,11.72V54.09l2.14,0v9.13C275.51,63.19,275.08,63.2,274.22,63.22Z" transform="translate(-196.41 -15.74)"/><path class="cls-35" d="M280.75,54.07c.93,2,1.39,3.08,2.32,5.15a19.73,19.73,0,0,1,.95,2.36h.08a23,23,0,0,1,1-2.32c.91-2,1.37-3,2.27-5.07l2.24.08c-1.83,3.59-2.75,5.39-4.6,9L283,63.22c-1.8-3.69-2.69-5.52-4.48-9.16Z" transform="translate(-196.41 -15.74)"/><path class="cls-36" d="M292.59,59.32c.06,2.27,1.91,3.31,4.05,3.48a9.82,9.82,0,0,0,3.26-.2c.15.49.22.74.37,1.24a12.07,12.07,0,0,1-3.91.24c-3.63-.29-5.8-2.25-5.82-5s2.07-4.88,5.5-4.66c3.83.24,4.86,3,4.88,4.74a5.7,5.7,0,0,1-.07.79C297.55,59.63,295.9,59.51,292.59,59.32Zm6.26-.78a2.86,2.86,0,0,0-3-2.95,2.91,2.91,0,0,0-3.26,2.53C295.11,58.26,296.36,58.34,298.85,58.54Z" transform="translate(-196.41 -15.74)"/><path class="cls-37" d="M303.55,58.11c0-1.11,0-2.06-.12-2.94l1.86.17c0,.75,0,1.12.09,1.86h.1a3,3,0,0,1,3.22-1.73,2.55,2.55,0,0,1,.6.12l0,1.64a3.51,3.51,0,0,0-.73-.14,2.42,2.42,0,0,0-2.83,1.9,3.12,3.12,0,0,0-.09.79c0,2,0,3,0,5l-2.11-.25Z" transform="translate(-196.41 -15.74)"/><path class="cls-38" d="M312.8,56.17c1.05,2.41,1.57,3.62,2.61,6.07.27.68.57,1.49.77,2.11h0c.22-.55.45-1.26.73-1.92.91-2.14,1.36-3.22,2.26-5.4l2.23.34c-1.24,2.63-1.86,3.94-3.1,6.52-1.49,3.11-2.52,4.63-3.95,5.42a5.38,5.38,0,0,1-2.59.7l-.55-1.55a5.61,5.61,0,0,0,1.85-.56,4.39,4.39,0,0,0,1.77-1.67,1,1,0,0,0,.17-.39,2.34,2.34,0,0,0-.15-.49c-1.76-3.85-2.64-5.74-4.4-9.47Z" transform="translate(-196.41 -15.74)"/></svg>